<?xml version="1.0" encoding="UTF-8"?>
<svg id="Layer_1" xmlns="http://www.w3.org/2000/svg" version="1.1" viewBox="0 0 600 400">
  <!-- Generator: Adobe Illustrator 30.3.0, SVG Export Plug-In . SVG Version: 2.1.3 Build 182)  -->
  <g>
    <path d="M27.06,345.75v-64.05h13.04v53.17h32.42v10.88H27.06Z"/>
    <path d="M79.18,313.86c0-6.58.98-12.1,2.95-16.56,1.47-3.29,3.47-6.24,6.01-8.85,2.54-2.61,5.32-4.55,8.35-5.82,4.02-1.7,8.66-2.56,13.92-2.56,9.52,0,17.13,2.95,22.84,8.85,5.71,5.9,8.57,14.11,8.57,24.63s-2.83,18.58-8.5,24.47c-5.67,5.89-13.25,8.83-22.73,8.83s-17.24-2.93-22.91-8.79c-5.67-5.86-8.5-13.93-8.5-24.21ZM92.62,313.42c0,7.31,1.69,12.86,5.07,16.63,3.38,3.77,7.67,5.66,12.86,5.66s9.46-1.87,12.8-5.62c3.33-3.74,5-9.36,5-16.85s-1.62-12.92-4.87-16.56c-3.25-3.64-7.56-5.46-12.93-5.46s-9.71,1.84-13,5.53c-3.29,3.69-4.93,9.24-4.93,16.67Z"/>
    <path d="M151.91,281.17h13.04v34.98c0,5.55.16,9.15.48,10.79.56,2.64,1.89,4.77,3.99,6.37,2.1,1.6,4.97,2.4,8.61,2.4s6.49-.76,8.37-2.27c1.88-1.51,3.01-3.37,3.39-5.57.38-2.2.57-5.86.57-10.97v-35.73h13.04v33.92c0,7.75-.35,13.23-1.06,16.43-.7,3.2-2,5.9-3.9,8.11s-4.43,3.96-7.6,5.26c-3.17,1.31-7.31,1.96-12.42,1.96-6.17,0-10.84-.71-14.03-2.14-3.19-1.42-5.7-3.27-7.56-5.55-1.85-2.28-3.07-4.66-3.66-7.16-.85-3.7-1.28-9.16-1.28-16.39v-34.45Z"/>
    <path d="M216.76,345.75v-64.58h13.04v64.58h-13.04Z"/>
    <path d="M238.92,324.74l12.69-1.23c.76,4.26,2.31,7.39,4.65,9.38,2.33,2,5.48,3,9.45,3,4.2,0,7.36-.89,9.49-2.67,2.13-1.78,3.19-3.85,3.19-6.23,0-1.53-.45-2.83-1.34-3.9-.9-1.07-2.46-2-4.69-2.8-1.53-.53-5.01-1.47-10.44-2.82-6.99-1.73-11.89-3.86-14.71-6.39-3.96-3.55-5.95-7.89-5.95-13,0-3.29.93-6.37,2.8-9.23,1.86-2.86,4.55-5.04,8.06-6.54,3.51-1.5,7.75-2.25,12.71-2.25,8.11,0,14.21,1.78,18.3,5.33,4.1,3.55,6.25,8.3,6.45,14.23l-13.04.57c-.56-3.32-1.76-5.7-3.59-7.16-1.84-1.45-4.59-2.18-8.26-2.18s-6.76.78-8.9,2.33c-1.38,1-2.07,2.33-2.07,4.01,0,1.53.65,2.83,1.94,3.92,1.64,1.38,5.64,2.82,11.98,4.32,6.34,1.5,11.04,3.05,14.08,4.65,3.04,1.6,5.42,3.79,7.14,6.56,1.72,2.78,2.58,6.2,2.58,10.29,0,3.7-1.03,7.17-3.08,10.4-2.06,3.23-4.96,5.63-8.72,7.2-3.76,1.57-8.44,2.36-14.05,2.36-8.16,0-14.44-1.89-18.81-5.66-4.38-3.77-6.99-9.27-7.84-16.5Z"/>
    <path d="M327.47,345.75v-64.58h20.93c7.93,0,13.1.32,15.51.97,3.7.97,6.8,3.08,9.3,6.32,2.5,3.25,3.74,7.44,3.74,12.58,0,3.96-.72,7.3-2.16,10-1.44,2.7-3.27,4.82-5.48,6.37-2.22,1.54-4.47,2.56-6.76,3.06-3.11.62-7.62.93-13.52.93h-8.5v24.36h-13.04ZM340.51,292.1v18.33h7.14c5.14,0,8.58-.34,10.31-1.01,1.73-.67,3.09-1.73,4.07-3.17.98-1.44,1.48-3.11,1.48-5.02,0-2.35-.69-4.29-2.07-5.82-1.38-1.53-3.13-2.48-5.24-2.86-1.56-.29-4.68-.44-9.38-.44h-6.3Z"/>
    <path d="M385,313.86c0-6.58.98-12.1,2.95-16.56,1.47-3.29,3.47-6.24,6.01-8.85,2.54-2.61,5.32-4.55,8.35-5.82,4.02-1.7,8.66-2.56,13.92-2.56,9.52,0,17.13,2.95,22.84,8.85,5.71,5.9,8.57,14.11,8.57,24.63s-2.83,18.58-8.5,24.47c-5.67,5.89-13.25,8.83-22.73,8.83s-17.24-2.93-22.91-8.79c-5.67-5.86-8.5-13.93-8.5-24.21ZM398.44,313.42c0,7.31,1.69,12.86,5.07,16.63,3.38,3.77,7.67,5.66,12.86,5.66s9.46-1.87,12.8-5.62c3.33-3.74,5-9.36,5-16.85s-1.62-12.92-4.87-16.56c-3.25-3.64-7.56-5.46-12.93-5.46s-9.71,1.84-13,5.53c-3.29,3.69-4.93,9.24-4.93,16.67Z"/>
    <path d="M458.18,345.75v-64.05h13.04v53.17h32.42v10.88h-45.46Z"/>
    <path d="M510.29,313.86c0-6.58.98-12.1,2.95-16.56,1.47-3.29,3.47-6.24,6.01-8.85,2.54-2.61,5.32-4.55,8.35-5.82,4.02-1.7,8.66-2.56,13.92-2.56,9.52,0,17.13,2.95,22.84,8.85,5.71,5.9,8.57,14.11,8.57,24.63s-2.83,18.58-8.5,24.47c-5.67,5.89-13.25,8.83-22.73,8.83s-17.24-2.93-22.91-8.79c-5.67-5.86-8.5-13.93-8.5-24.21ZM523.73,313.42c0,7.31,1.69,12.86,5.07,16.63,3.38,3.77,7.67,5.66,12.86,5.66s9.46-1.87,12.8-5.62c3.33-3.74,5-9.36,5-16.85s-1.62-12.92-4.87-16.56c-3.25-3.64-7.56-5.46-12.93-5.46s-9.71,1.84-13,5.53c-3.29,3.69-4.93,9.24-4.93,16.67Z"/>
  </g>
  <g>
    <path d="M328.41,54.03c6.45.49,12.87,1.55,19.16,2.98,20.15,4.57,35.25,15.66,41.58,35.89,7.91,25.29-3.17,59.82-40.67,66.72-15.84,2.92-31.36.91-46.84-2.48-.35-.08-.7-.12-1.32-.23-.07,1.11-.19,2.14-.19,3.18,0,14.93-.04,29.87.05,44.8.02,3.6.33,7.21.74,10.8,1.1,9.69,7.11,15.07,17.17,15.42,2.99.11,5.99.02,9.28.02.1,1.4.18,2.53.26,3.64-.54.25-.85.52-1.17.52-13.12-.04-26.26.32-39.35-.3-10.92-.51-13.1-4.09-13.59-15.06-.59-13.21-.24-26.47-.26-39.7-.02-18.31.06-36.61-.03-54.92-.07-14.93-.29-29.86-.54-44.78-.05-2.87-.37-5.78-.88-8.61-1.53-8.41-7.67-13.14-17.41-13.5-2.76-.1-5.52-.02-8.5-.02-.21-1.59-.39-2.97-.57-4.36,27.7,0,55.48-2.08,83.1,0ZM300.12,107.99c0,12.4.06,24.81-.06,37.21-.02,2.32.77,3.21,2.96,3.48,4.77.59,9.51,1.41,14.28,1.98,17.22,2.07,32.57-6.85,38.66-23.15,5.77-15.45,4.08-30.57-4.26-44.75-5.67-9.64-14.63-14.57-25.47-16.51-7.76-1.39-15.29-.17-22.89,1.29-2.59.5-3.31,1.41-3.28,3.96.13,12.16.06,24.33.06,36.49Z"/>
    <path d="M208.45,66.31c10.72.02,21.43-.08,32.15.1,6,.11,12.33.42,16.58,5.26,2.29,2.6,3.98,6.35,4.46,9.78.95,6.74,1.16,13.63,1.17,20.46.09,40.57,0,81.15.1,121.72,0,4.43.52,8.89,1.24,13.26.72,4.37,3.71,7.42,8,7.72,20.06,1.41,40.17,2.25,60.12-1,11.26-1.83,19.37-8.89,25.33-18.2,4.07-6.35,7.32-13.22,11.08-20.12,1.01.21,2.37.5,4.12.87-5.45,17.34-10.83,34.49-16.22,51.64-49.38,0-98.76,0-148.14,0,0-1.45,0-2.89,0-4.33,3.13.01,6.26.14,9.38,0,9.77-.41,16.04-6.06,17.18-15.6.5-4.17.77-8.4.77-12.6.06-41.76.06-83.52,0-125.28,0-4.32-.29-8.66-.75-12.96-1.03-9.7-5.15-14.25-14.73-15.84-3.88-.64-7.9-.4-11.86-.55v-4.34Z"/>
  </g>
</svg>